# xmcd
#
# Track frame offsets:
#	150
#	24573
#	39325
#	67873
#	85872
#	103422
#	128048
#	152471
#	171022
#	185200
#	205085
#	220168
#	237311
#	252791
#	273513
#	292018
#	307661
#	345424
#
# Disc length: 4786 seconds
#
# Revision: 1
# Processed by: cddbd v1.5.2PL0 Copyright (c) Steve Scherf et al.
# Submitted via: EZCDAudioConverter 6.0.0.1
#
DISCID=f812b012
DTITLE=Various Artist - Akella Presents - vol.69 - Russia-Blues  2CD
DYEAR=2016
DGENRE=Blues
TTITLE0=Дикий Мед - Миссиссиппи-блюз
TTITLE1=Александр Долгов - Циничный блюз
TTITLE2=Ксения Федулова' - Блюзмен
TTITLE3=Анатолий Жемаев - Последний день любви
TTITLE4=Мадера Хард Блюз - Я охраняю свой покой
TTITLE5=Владимир Федоренко - В тишине парижских улиц
TTITLE6=Кроссроудз - Вио
TTITLE7=Андрей Козловский - Возьми себя в руки
TTITLE8=Блюз Казанс - Бессонная Ночь
TTITLE9=АлисА - Перекрёсток
TTITLE10=Биг Блюз Ревайвл - Блюз де Моску
TTITLE11=Александр Барыкин - Я знаю теперь
TTITLE12=Ксения Федулова - Сделай мне блюз, дедка
TTITLE13=Мадера Хард Блюз - Мышка
TTITLE14=Дорога на Миссисипи - Побудь со мной
TTITLE15=Дикий Мед - Худенькая Лиза
TTITLE16=Цикл Кребса - Худо холаса
TTITLE17=Евгений Маргулис - Последняя-2
EXTD=
EXTT0=
EXTT1=
EXTT2=
EXTT3=
EXTT4=
EXTT5=
EXTT6=
EXTT7=
EXTT8=
EXTT9=
EXTT10=
EXTT11=
EXTT12=
EXTT13=
EXTT14=
EXTT15=
EXTT16=
EXTT17=
PLAYORDER=
